<svg xmlns="http://www.w3.org/2000/svg" width="512" height="512" fill-rule="evenodd" clip-rule="evenodd" image-rendering="optimizeQuality" shape-rendering="geometricPrecision" text-rendering="geometricPrecision" viewBox="0 0 512 512" id="psychology"><defs><linearGradient id="a" x1="216.53" x2="296.169" y1=".174" y2="511.973" gradientUnits="userSpaceOnUse"><stop offset="0" stop-color="#1e8ac6"></stop><stop offset=".302" stop-color="#834fbc"></stop><stop offset="1" stop-color="#e813b1"></stop></linearGradient></defs><path fill="url(#a)" d="M87 326l0 0zm172 -260l0 281c11,4 65,21 90,-38l0 0c27,-42 -32,-74 -33,-74 -3,-2 0,-7 3,-5 0,0 61,32 38,77 14,-1 52,-11 35,-60 0,-1 1,-3 1,-3 3,-3 45,-44 2,-75 -1,-1 -1,-2 -1,-3 0,0 20,-73 -42,-74 24,45 -38,77 -38,77 -3,2 -6,-3 -3,-5 1,0 60,-31 33,-74l0 -1c-1,-2 -15,-72 -85,-23zm71 28c-34,42 -58,12 -58,12 -2,-3 3,-7 5,-4 0,0 19,25 49,-11 2,-3 7,0 4,3zm-44 55c-3,-2 1,-7 4,-4 0,0 29,22 -9,55 38,34 9,56 9,56 -3,3 -7,-2 -4,-5 0,0 25,-18 -11,-48 -2,-2 -2,-4 0,-5 36,-30 11,-49 11,-49zm-14 165c-2,-3 3,-7 5,-4 0,0 19,25 49,-11 2,-3 7,1 4,4 -34,41 -58,11 -58,11zm-112 -222c-62,1 -42,74 -42,74 0,1 0,2 -1,3 -43,31 -1,72 2,75 0,0 1,2 1,3 -17,49 21,59 35,60 -23,-45 38,-77 38,-77 3,-2 6,3 3,5 -1,0 -60,32 -33,74l0 0c25,59 79,42 90,38l0 -281c-70,-49 -84,21 -85,23l0 1c-27,43 32,74 33,74 3,2 0,7 -3,5 0,0 -62,-32 -38,-77zm75 207c2,-3 7,1 5,4 -35,41 -58,11 -58,11 -3,-3 2,-7 4,-4 0,0 19,25 49,-11zm-13 -154c3,-3 7,2 4,4 0,0 -25,19 11,49 2,1 2,3 0,5 -36,30 -11,48 -11,48 3,3 -1,8 -4,5 0,0 -29,-22 9,-56 -38,-33 -9,-55 -9,-55zm-40 -39c-3,-3 2,-7 4,-4 0,0 19,25 49,-11 2,-3 7,0 5,3 -35,42 -58,12 -58,12zm-70 59c-3,-12 -16,-80 51,-79 3,-14 23,-75 93,-25 70,-50 90,11 93,25 67,-1 54,67 51,79 43,33 6,74 -1,82 18,60 -35,66 -45,67 -29,63 -89,42 -98,39 -9,3 -69,24 -98,-39 -10,-1 -63,-7 -45,-67 -7,-8 -44,-49 -1,-82zm23 304l0 0zm0 0c61,-16 53,4 54,43l243 -1c-4,-26 -28,-191 28,-261 38,-49 25,-109 -12,-157 -57,-73 -160,-109 -257,-86 -81,20 -133,78 -143,174 -5,44 17,73 -13,118 -26,42 48,23 49,23 2,-1 4,2 3,4l-29 37 28 21c2,1 2,5 -1,5l-26 9c8,10 17,17 15,31 -3,34 16,54 61,40l0 0z"></path></svg>